<?xml version="1.0" encoding="UTF-8"?>
<svg version="1.1" viewBox="0 0 2048 589" width="1280" height="1280" xmlns="http://www.w3.org/2000/svg">
<path transform="translate(775,4)" d="m0 0h18l17 2 18 6 13 8 10 8 6 5 11 14 11 18 6 14 5 18 4 21 1 10v31l-2 16-7 28-6 17-8 16-13 23-12 17-9 11-6 7-8 7-10 10-11 9-14 11-16 9-21 11-20 7-20 4-19 2-5 1h-7l-10-2-15-2-17-5-12-6-13-10-10-10-9-14-9-17-5-15-6-23-2-27v-14l3-28 6-23 6-17 12-25 9-16 9-12 8-10 12-14 16-16 17-13 17-12 19-11 19-9 15-5 18-4zm-8 10-16 4-12 5-17 9-10 8-16 15-7 8-12 15-9 14-9 15-8 16-13 31-9 24-8 30-7 31-3 28v22l3 18 6 15 7 11 10 9 15 8 11 3 10 1h24l16-2 16-6 16-9 14-10 13-12 7-7 10-14 14-22 9-16 7-15 9-20 10-30 8-33 6-29 2-16v-32l-3-20-6-15-7-11-7-7-14-8-16-5-6-1z" fill="#0c2345"/>
<path transform="translate(1507,10)" d="m0 0h138l8 1v7l-1 1-47 1 3 19 10 37 7 24 7 28 6 19 2 4 8-10 11-13 12-13 9-11 12-14 11-13 14-15 7-8 12-14 9-12 7-9h-15l-20-1-6-2 1-4 1-1h92l1 1v5l-1 1-38 2-9 10-11 13-8 10-12 14-10 11-9 11-12 13-9 11-14 15-9 11-15 16-5 4-1 3 19 78 10 36 14 54 5 15 1 2 46 1 3 2v7l-2 1-26 1h-112l-8-1-2-4 4-6 6-1 43 1-8-33-10-37-8-31-8-26-6-21v-2h-3l-2 4-13 14-7 8-9 10-12 14-8 10-11 12-7 8-11 12-8 9-7 8-9 10-9 11-9 9-8 10h21l19 1 2 2v7l-1 1-18 1h-65l-10-1-1-7 4-4h31l6-2 10-11 9-11 26-30 11-12 9-11 7-7 9-11 14-15 9-11 14-15 9-11 12-12 1-4-11-42-15-60-6-20-9-32-2-9-1-1-45-1-4-1v-7z" fill="#0c2345"/>
<path transform="translate(1e3 10)" d="m0 0h48l34 1 5 5 6 21 8 35 16 64 8 33 10 36 10 42 7 25 3 8 3-12 8-20 10-28 16-47 18-50 11-29 8-23 12-36 6-16h-49l-3-1-1-6 2-2h103l9 1v7l-1 1h-48l-13 39-7 20-15 41-9 25-12 36-9 25-15 41-12 30-19 55-11 32-3 1-4-4-7-25-6-24-6-23-11-42-7-30-9-37-10-38-14-54-9-32-3-11h-2l-1 5-11 30-10 28-23 68-15 40-10 27-17 49-13 37-7 19h35l13 1 3 1 1 6-3 3-14 1h-89l-7-2-1-1 1-7 3-2h47l3-11 10-30 14-40 10-26 8-21 16-47 18-51 9-22 10-29 11-30 6-16 1-5h-46l-5-1-1-6 1-1z" fill="#0c2345"/>
<path transform="translate(459,4)" d="m0 0h13l17 2 20 6 21 8 4 1h16l6-4 4-5 4-2 6 1-2 11-9 25-12 36-8 20-3 2h-6v-7l2-9v-28l-4-12-6-10-5-6-10-7-10-5-15-5-7-1h-27l-17 4-16 8-12 8-12 10-7 8-9 9-16 23-10 17-16 32-7 16-13 37-6 20-5 25-4 31v31l4 16 5 12 8 11 13 10 10 5 15 4 14 1h21l16-2 17-7 15-9 14-11 7-7 10-13 14-21 5-1 3 3-1 7-8 14-12 16-10 11-13 10-14 9-11 5-14 4-26 4h-7l-12-2-17-2-15-4-14-6-13-9-10-9-10-14-10-17-8-20-5-21-2-22v-19l2-25 7-26 10-26 11-21 16-24 11-14 7-7 7-8 7-7 22-18 21-14 24-13 18-7 21-5z" fill="#0c2345"/>
<path transform="translate(1344,10)" d="m0 0h131l15 1 1 1v5l-3 2-47 1-8 18-13 35-17 48-14 41-10 27-18 49-9 25-9 27-16 42-4 15 48 1 3 1v7l-2 2-9 1h-129l-7-1-2-2 1-7 4-2 46 1 3-10 11-31 10-27 9-27 11-28 14-41 11-30 16-45 11-29 15-43 6-18h-44l-8-1-2-2 1-5z" fill="#0c2345"/>
<path transform="translate(120,11)" d="m0 0h147l1 1v5l-9 1h-41l-3 9-15 43-10 27-7 20-15 41-14 41-10 27-15 42-10 26-15 44-3 10h49l3 3v6l-3 1-29 1h-91l-24-1-3-1-1-4 4-5 48-1 2-6 7-19 14-39 10-27 12-35 8-21 10-29 9-24 6-15 12-36 14-39 11-32 3-7h-50l-3-2z" fill="#0c2345"/>
<path transform="translate(1903,438)" d="m0 0 3 1 1 2 3 68 2 56 33-1 3-9 12-35 12-34 11-35 2-9h-9v-3l10-1h36l-2 2-13 2-3 5-13 40-14 41-12 36 26-1 15-1 10-3 8-6 14-18 2-2h3l-2 12-5 16-4 6-39 1-81 1h-34l-3-1v-2l16-2v-19l-1-27-1-4v-22l-1-27-14 19-12 18-6 12h31v1l-26 1-9 4-7 9-11 18-10 15-1 4h7l2 1-1 3-6 1-23 1-5-1v-2l15-4 10-13 11-18 14-20 10-13 14-20 9-13 15-25 5-4z" fill="#0c2345"/>
<path transform="translate(1341,451)" d="m0 0h30l1 3-16 1-3 10-19 56-12 34-6 22h18l1 3-22 2h-35l-1-3 15-2 4-4 14-40 11-33 7-24 1-6-11 18-14 19-11 16-12 17-8 13-10 18-6 8-4 1-2-3v-70l-2-38-5 19-7 20-12 36-7 20-2 6v6l5 2 10 2 1 2-4 1h-37v-3l16-3 6-14 13-37 14-38 6-21 1-8-14-2-1-3 16-2h17l4 2 1 2v61l1 28 1 4 19-28 18-27 11-17 10-17 7-8z" fill="#0c2345"/>
<path transform="translate(1532,447)" d="m0 0h45l11 3 9 4 6 4 6 7 6 13 2 15-1 18-6 17-8 15-11 12-10 8-17 9-17 5-5 1h-71v-3l15-2 3-3 7-19 14-41 13-37 7-22-16-1-1-2zm25 3-7 2-5 10-12 36-10 29-11 33-2 8v5h28l12-3 15-9 10-9 9-13 8-15 5-16 2-14v-18l-3-10-4-6-8-6-10-3z" fill="#0c2345"/>
<path transform="translate(1461,448)" d="m0 0h22l4 2-1 8-9 19-2 1-1-16-3-5-9-3h-21l-16 1-2 1-12 36-4 16 2 2-4 2-7 20-9 28-4 16 40-2 9-3 7-6 9-11 8-11h3l-1 11-4 15-5 9-1 1-9 1h-96l-1-3 19-2 8-21 12-36 12-38 7-21 1-5h-12l-3-2 1-1 20-2z" fill="#0c2345"/>
<path transform="translate(1777,440)" d="m0 0h11l21 5h7l6-1-3 12-7 19-3 3-2-2-1-14-3-8-7-6-10-3h-8l-9 3-9 6-7 7-11 17-8 17-6 17-4 24v14l6 12 6 5 12 4h8l13-5 10-8 8-9 3-4 4 1-2 6-6 8-7 7-9 5-10 2h-18l-13-4-9-7-6-7-5-10-3-14v-13l3-16 7-16 9-14 8-10 9-8 13-8 12-5z" fill="#0c2345"/>
<path transform="translate(1701,444)" d="m0 0h7v2l-2 1-14 1-3 10-15 43-12 36-6 19-3 14h12l-1 2-17 3h-33l1-2 13-2 4-4 12-35 11-33 15-42 3-9h-6l-2-2 8-1z" fill="#0c2345"/>
<path transform="translate(1445,486)" d="m0 0 4 1-7 25-10 25h-2l-3-17-4-7-4-3 10-5 8-8 7-10z" fill="#0c2345"/>
<path transform="translate(1887,515)" d="m0 0 2 1z" fill="#0c2345"/>
</svg>
